<?xml version="1.0" encoding="UTF-8"?>
<svg width="640" height="480" xmlns="http://www.w3.org/2000/svg" xmlns:svg="http://www.w3.org/2000/svg" xmlns:xlink="http://www.w3.org/1999/xlink">
 <!-- Created with SVG-edit - http://svg-edit.googlecode.com/ -->
 <title>dbservices-outlook-calendar-integration</title>
 <defs>
  <symbol id="svg_1" viewBox="0 0 21 16.88" xmlns:xlink="http://www.w3.org/1999/xlink" xmlns="http://www.w3.org/2000/svg">
   <path d="m0,3.65901l20.999,0l-1.33301,13.222l-18.33298,0l-1.33301,-13.222zm3.49998,-3.65901l8.388,0l0,1.445l6.945,0l0,1.44399l-17,0l0,-1.44399l1.667,0l0,-1.445z" class="fm_fill" fill="#0072C6" id="svg_7"/>
  </symbol>
  <symbol id="svg_4" viewBox="0 0 64 59.08" xmlns:xlink="http://www.w3.org/1999/xlink" xmlns="http://www.w3.org/2000/svg">
   <path d="m38.283,43.79l8.551,0l0,8.429l-8.551,0l0,-8.429zm-10.493,0l8.55,0l0,8.429l-8.55,0l0,-8.429zm-10.56,0l8.551,0l0,8.429l-8.551,0l0,-8.429zm-10.348,0l8.551,0l0,8.429l-8.551,0l0,-8.429zm41.96,-10.493l8.55,0l0,8.428l-8.55,0l0,-8.428zm-10.559,0l8.551,0l0,8.428l-8.551,0l0,-8.428zm-10.493,0l8.55,0l0,8.428l-8.55,0l0,-8.428zm-10.56,0l8.551,0l0,8.428l-8.551,0l0,-8.428zm-10.348,0l8.551,0l0,8.428l-8.551,0l0,-8.428zm41.96,-10.203l8.55,0l0,8.428l-8.55,0l0,-8.428zm-10.559,0l8.551,0l0,8.428l-8.551,0l0,-8.428zm-10.493,0l8.55,0l0,8.428l-8.55,0l0,-8.428zm-10.56,0l8.551,0l0,8.428l-8.551,0l0,-8.428zm-10.348,0l8.551,0l0,8.428l-8.551,0l0,-8.428zm41.96,-10.446l8.55,0l0,8.429l-8.55,0l0,-8.429zm-10.559,0l8.551,0l0,8.429l-8.551,0l0,-8.429zm-10.493,0l8.55,0l0,8.429l-8.55,0l0,-8.429zm-10.56,0l8.551,0l0,8.429l-8.551,0l0,-8.429zm-12.56594,-2.15322l0,43.78893l54.67184,0l0,-43.78893l-54.67184,0zm-4.66406,-10.49478l64,0l0,59.078l-64,0l0,-59.078z" class="fm_fill" fill="#0072C6" id="svg_9"/>
  </symbol>
  <pattern id="gridpattern" patternUnits="userSpaceOnUse" x="0" y="0" width="100" height="100">
   <image id="svg_10" x="0" y="0" width="100" height="100"/>
  </pattern>
  <pattern height="100" width="100" y="0" x="0" patternUnits="userSpaceOnUse" id="gridpattern">
   <image height="100" width="100" y="0" x="0"/>
  </pattern>
 </defs>
 <g>
  <title>Layer 1</title>
  <use x="-145.92462" y="1198.50834" transform="matrix(0.43238205876302893,0,0,0.4030735853128389,80.15786467292362,-458.9318553150204) " xlink:href="#svg_1" id="svg_2"/>
  <g id="svg_3"/>
  <use x="101.29293" y="697.36676" transform="matrix(0.47519678710857804,0,0,0.40557203643812284,282.02994228682314,-26.482532503304142) " xlink:href="#svg_4" id="svg_5"/>
  <g id="svg_6"/>
  <path id="svg_8" d="m1.49805,5.18424l3.55556,-3.54361l3.55555,3.54361l-1.77778,0l0,3.56067l-3.55555,0l0,-3.56067l-1.77778,0z" stroke-opacity="0" stroke-linecap="null" stroke-linejoin="null" stroke-dasharray="null" stroke-width="null" stroke="#000000" fill="#0072C6"/>
  <path stroke="#000000" transform="rotate(89.55978393554688 220.92053222656247,334.7160949707031) " id="svg_12" d="m145.29009,373.35189l37.81525,-38.63578l0,19.31789l56.72278,0l0,-57.95368l-18.90761,0l37.81523,-38.63579l37.81522,38.63579l-18.90761,0l0,96.58947l-94.538,0l0,19.31789l-37.81525,-38.63579l-0.00001,0z" stroke-opacity="0" stroke-linecap="null" stroke-linejoin="null" stroke-dasharray="null" stroke-width="null" fill="#ffbb00"/>
  <path transform="rotate(-90.3819580078125 426.6666870117188,136.00001525878903) " stroke="#000000" id="svg_13" d="m351.03623,174.63579l37.81525,-38.63579l0,19.3179l56.72278,0l0,-57.95368l-18.90761,0l37.81522,-38.63579l37.81523,38.63579l-18.90761,0l0,96.58947l-94.538,0l0,19.31789l-37.81525,-38.63579l-0.00001,0z" stroke-opacity="0" stroke-linecap="null" stroke-linejoin="null" stroke-dasharray="null" stroke-width="null" fill="#ffbb00"/>
 </g>
</svg>