<svg width="71" height="71" viewBox="0 0 71 71" fill="none" xmlns="http://www.w3.org/2000/svg">
<path d="M35.3195 0.225098C15.9846 0.225098 0.311035 15.8988 0.311035 35.2335C0.311035 54.5685 15.9846 70.242 35.3195 70.242C54.6543 70.242 70.328 54.5685 70.328 35.2335C70.328 15.8988 54.6543 0.225098 35.3195 0.225098ZM49.56 28.9029C49.5745 29.2019 49.5782 29.5009 49.5782 29.7926C49.5782 38.9094 42.6457 49.4157 29.9624 49.4157C26.2147 49.4219 22.5449 48.3455 19.3943 46.3159C19.9304 46.3816 20.481 46.4071 21.039 46.4071C24.2699 46.4071 27.242 45.3095 29.6014 43.457C28.1636 43.4286 26.7703 42.9525 25.6159 42.0949C24.4615 41.2373 23.6034 40.0409 23.1613 38.6725C24.1939 38.8688 25.2577 38.8276 26.272 38.552C24.7114 38.2365 23.3079 37.3909 22.2996 36.1585C21.2913 34.9264 20.7403 33.3832 20.74 31.7911V31.7072C21.6698 32.2214 22.7347 32.5351 23.8651 32.5714C22.4021 31.5975 21.3664 30.1014 20.9698 28.3892C20.5732 26.6769 20.8459 24.8778 21.7319 23.3598C23.464 25.4895 25.6238 27.2318 28.0719 28.4737C30.5199 29.7157 33.2016 30.4297 35.943 30.5695C35.5946 29.09 35.7446 27.5367 36.3699 26.1514C36.9951 24.766 38.0605 23.6261 39.4004 22.9086C40.7404 22.1913 42.2799 21.9367 43.7795 22.1843C45.2792 22.4322 46.6548 23.1685 47.6928 24.2789C49.2359 23.9736 50.7158 23.4074 52.0689 22.605C51.5545 24.2028 50.4777 25.5595 49.0385 26.4231C50.4055 26.2584 51.7401 25.891 52.9988 25.3327C52.0742 26.718 50.9098 27.9272 49.56 28.9029Z" fill="#ABFDAA"/>
</svg>
