<svg width="74" height="74" viewBox="0 0 74 74" fill="none" xmlns="http://www.w3.org/2000/svg">
<circle cx="37" cy="37" r="37" fill="#E8EDFF"/>
<path d="M45.5599 40.4593C45.5599 39.3281 45.0943 38.2432 44.2655 37.4433C43.4366 36.6435 42.3125 36.1941 41.1404 36.1941H25.6724C24.5003 36.1941 23.3762 36.6435 22.5474 37.4433C21.7185 38.2432 21.2529 39.3281 21.2529 40.4593V43.6582C21.2529 48.0386 25.8668 51.1223 33.4064 51.1223C34.4207 51.1223 35.3797 51.0669 36.2835 50.9603L35.4813 50.1861C35.1733 49.889 34.929 49.5363 34.7623 49.1481C34.5956 48.7598 34.5098 48.3437 34.5098 47.9234C34.5098 47.5032 34.5956 47.087 34.7623 46.6988C34.929 46.3105 35.1733 45.9578 35.4813 45.6607L39.9008 41.3955C40.3643 40.9478 40.9551 40.6429 41.5982 40.5194C42.2414 40.3958 42.9081 40.4592 43.5139 40.7014C44.1198 40.9437 44.6376 41.3539 45.0018 41.8802C45.3659 42.4066 45.5602 43.0253 45.5599 43.6582V40.4593Z" fill="#1B80F8"/>
<path d="M56.1822 44.0527C56.465 43.2786 56.6087 42.432 56.6087 41.5256V40.4593C56.6087 39.3281 56.1431 38.2432 55.3142 37.4433C54.4854 36.6435 53.3613 36.1941 52.1892 36.1941H46.0793L46.3821 36.5417C47.2527 37.6251 47.7698 38.9835 47.7698 40.4593V43.6582C47.7704 43.0259 47.9651 42.408 48.3293 41.8825C48.6936 41.3569 49.211 40.9473 49.8163 40.7055C50.4216 40.4636 51.0876 40.4002 51.7302 40.5234C52.3728 40.6466 52.9631 40.9508 53.4267 41.3976L56.1822 44.0527Z" fill="#1B80F8"/>
<path d="M41.1404 26.5974C41.1404 24.6178 40.3256 22.7193 38.8752 21.3195C37.4248 19.9197 35.4576 19.1333 33.4064 19.1333C31.3552 19.1333 29.388 19.9197 27.9376 21.3195C26.4872 22.7193 25.6724 24.6178 25.6724 26.5974C25.6724 28.577 26.4872 30.4756 27.9376 31.8753C29.388 33.2751 31.3552 34.0615 33.4064 34.0615C35.4576 34.0615 37.4248 33.2751 38.8752 31.8753C40.3256 30.4756 41.1404 28.577 41.1404 26.5974Z" fill="#1B80F8"/>
<path d="M54.3987 28.7302C54.3987 27.3162 53.8167 25.9601 52.7807 24.9602C51.7447 23.9604 50.3395 23.3987 48.8744 23.3987C47.4093 23.3987 46.0041 23.9604 44.9681 24.9602C43.9321 25.9601 43.3501 27.3162 43.3501 28.7302C43.3501 30.1442 43.9321 31.5003 44.9681 32.5001C46.0041 33.5 47.4093 34.0617 48.8744 34.0617C50.3395 34.0617 51.7447 33.5 52.7807 32.5001C53.8167 31.5003 54.3987 30.1442 54.3987 28.7302Z" fill="#1B80F8"/>
<path d="M41.4628 52.9436C41.6703 53.1438 41.9516 53.2563 42.245 53.2563C42.5384 53.2563 42.8198 53.1438 43.0273 52.9436C43.2347 52.7434 43.3513 52.4718 43.3513 52.1886C43.3513 51.9055 43.2347 51.6339 43.0273 51.4337L40.4927 48.9897H52.8362L50.3017 51.4337C50.0942 51.6339 49.9777 51.9055 49.9777 52.1886C49.9777 52.4718 50.0942 52.7434 50.3017 52.9436C50.5091 53.1438 50.7905 53.2563 51.0839 53.2563C51.3773 53.2563 51.6587 53.1438 51.8662 52.9436L56.2856 48.6784C56.3885 48.5793 56.4701 48.4617 56.5258 48.3321C56.5815 48.2026 56.6102 48.0637 56.6102 47.9234C56.6102 47.7832 56.5815 47.6443 56.5258 47.5148C56.4701 47.3852 56.3885 47.2675 56.2856 47.1685L51.8662 42.9033C51.6587 42.7031 51.3773 42.5906 51.0839 42.5906C50.7905 42.5906 50.5091 42.7031 50.3017 42.9033C50.0942 43.1035 49.9777 43.3751 49.9777 43.6582C49.9777 43.9414 50.0942 44.2129 50.3017 44.4132L52.8362 46.8571H40.4927L43.0273 44.4132C43.2347 44.2129 43.3513 43.9414 43.3513 43.6582C43.3513 43.3751 43.2347 43.1035 43.0273 42.9033C42.8198 42.7031 42.5384 42.5906 42.245 42.5906C41.9516 42.5906 41.6703 42.7031 41.4628 42.9033L37.0433 47.1685C36.9405 47.2675 36.8588 47.3852 36.8031 47.5148C36.7474 47.6443 36.7188 47.7832 36.7188 47.9234C36.7188 48.0637 36.7474 48.2026 36.8031 48.3321C36.8588 48.4617 36.9405 48.5793 37.0433 48.6784L41.4628 52.9436Z" fill="#1B80F8"/>
</svg>
