<svg width="74" height="74" viewBox="0 0 74 74" fill="none" xmlns="http://www.w3.org/2000/svg">
<circle cx="37" cy="37" r="37" fill="#FFD6DD"/>
<path d="M42.7475 22.911C42.4063 22.5816 42.0011 22.3203 41.5552 22.1421C41.1093 21.9638 40.6314 21.8721 40.1488 21.8721C39.6662 21.8721 39.1882 21.9638 38.7423 22.1421C38.2964 22.3203 37.8913 22.5816 37.55 22.911L21.3128 38.5806C20.9715 38.91 20.7008 39.3009 20.5161 39.7312C20.3314 40.1616 20.2363 40.6228 20.2363 41.0885C20.2363 41.5543 20.3314 42.0155 20.5161 42.4458C20.7008 42.8761 20.9715 43.2671 21.3128 43.5965L22.9403 45.1671C23.795 45.9919 25.0109 45.85 25.7669 45.4508C26.2647 45.1887 26.837 45.0892 27.3982 45.1672C27.9595 45.2451 28.4794 45.4964 28.8804 45.8833C29.2813 46.2702 29.5417 46.772 29.6225 47.3136C29.7032 47.8553 29.6001 48.4076 29.3285 48.8879C28.9148 49.6175 28.7699 50.7929 29.6225 51.6177L31.25 53.1863C31.5913 53.5157 31.9965 53.777 32.4423 53.9552C32.8882 54.1335 33.3662 54.2252 33.8488 54.2252C34.3314 54.2252 34.8093 54.1335 35.2552 53.9552C35.7011 53.777 36.1063 53.5157 36.4475 53.1863L52.6847 37.5167C53.026 37.1873 53.2968 36.7963 53.4815 36.366C53.6662 35.9357 53.7613 35.4745 53.7613 35.0087C53.7613 34.543 53.6662 34.0818 53.4815 33.6515C53.2968 33.2211 53.026 32.8302 52.6847 32.5008L51.0572 30.9302C50.2046 30.1074 48.9887 30.2472 48.2327 30.6465C47.735 30.9086 47.1627 31.0081 46.6015 30.9301C46.0402 30.8522 45.5202 30.6009 45.1193 30.214C44.7184 29.8271 44.458 29.3253 44.3772 28.7836C44.2964 28.242 44.3996 27.6897 44.6711 27.2094C45.0827 26.4798 45.2297 25.3044 44.3771 24.4816L42.7475 22.911Z" fill="#F97C93"/>
</svg>
