<svg width="74" height="75" viewBox="0 0 74 75" fill="none" xmlns="http://www.w3.org/2000/svg">
<circle cx="37" cy="37.3513" r="37" fill="#E8EDFF"/>
<path d="M58.3245 34.3039L50.1578 26.4227C49.9674 26.239 49.7414 26.0933 49.4927 25.9939C49.244 25.8944 48.9774 25.8433 48.7082 25.8433C48.1645 25.8433 47.6431 26.0517 47.2586 26.4227C46.8742 26.7937 46.6582 27.2969 46.6582 27.8216C46.6582 28.3463 46.8742 28.8495 47.2586 29.2205L51.9545 33.7325H28.2915C27.7501 33.7325 27.2308 33.9401 26.8479 34.3096C26.465 34.6791 26.2499 35.1803 26.2499 35.7029C26.2499 36.2254 26.465 36.7266 26.8479 37.0961C27.2308 37.4656 27.7501 37.6732 28.2915 37.6732H56.8749C57.278 37.6712 57.6714 37.5542 58.0057 37.3368C58.3399 37.1194 58.6 36.8114 58.7532 36.4516C58.9096 36.0928 58.9523 35.6973 58.876 35.3151C58.7997 34.9329 58.6078 34.581 58.3245 34.3039ZM48.7082 41.6138H20.1249C19.7218 41.6157 19.3283 41.7328 18.9941 41.9501C18.6598 42.1675 18.3997 42.4756 18.2465 42.8354C18.0902 43.1942 18.0475 43.5896 18.1238 43.9719C18.2001 44.3541 18.392 44.7059 18.6753 44.983L26.842 52.8642C27.0318 53.0489 27.2576 53.1955 27.5064 53.2955C27.7552 53.3955 28.022 53.447 28.2915 53.447C28.5611 53.447 28.8279 53.3955 29.0767 53.2955C29.3255 53.1955 29.5513 53.0489 29.7411 52.8642C29.9325 52.6811 30.0844 52.4631 30.188 52.223C30.2917 51.9829 30.3451 51.7254 30.3451 51.4653C30.3451 51.2052 30.2917 50.9477 30.188 50.7076C30.0844 50.4675 29.9325 50.2496 29.7411 50.0664L25.0453 45.5544H48.7082C49.2497 45.5544 49.769 45.3468 50.1519 44.9773C50.5348 44.6078 50.7499 44.1066 50.7499 43.5841C50.7499 43.0615 50.5348 42.5604 50.1519 42.1909C49.769 41.8214 49.2497 41.6138 48.7082 41.6138Z" fill="black"/>
</svg>
