<svg  viewBox="0 0 1480 522" fill="none" xmlns="http://www.w3.org/2000/svg">
    <path d="M0 0L123.833 5.29999C247.667 11 495.333 21 743 21.3C990.667 21 1238.33 11 1362.17 5.29999L1486 0V64H1362.17C1238.33 64 990.667 64 743 64C495.333 64 247.667 64 123.833 64H0V0Z" fill="#174E3E"/>
    <path d="M-6 522L117.833 516.7C241.667 511 489.333 501 737 500.7C984.667 501 1232.33 511 1356.17 516.7L1480 522V458H1356.17C1232.33 458 984.667 458 737 458C489.333 458 241.667 458 117.833 458H-6V522Z" fill="#174E3E"/>
    <rect y="57" width="1486" height="415" id ="text" fill="#174E3E"/>
</svg>